<mxfile host="app.diagrams.net" modified="2024-05-17T03:06:55.591Z" agent="Mozilla/5.0 (Windows NT 10.0; Win64; x64) AppleWebKit/537.36 (KHTML, like Gecko) Chrome/122.0.0.0 Safari/537.36" etag="bScuSsZ34U2WzKVa-36K" version="24.2.3" type="github" pages="2">
  <diagram name="第 1 页" id="oKJ_XrUYDNWwzHc8q2mZ">
    <mxGraphModel dx="1077" dy="564" grid="1" gridSize="5" guides="1" tooltips="1" connect="1" arrows="1" fold="1" page="1" pageScale="1" pageWidth="827" pageHeight="1169" math="0" shadow="0">
      <root>
        <mxCell id="0" />
        <mxCell id="1" parent="0" />
        <mxCell id="yEtqyaSCwH1MjNTmkDz6-5" style="edgeStyle=orthogonalEdgeStyle;rounded=0;orthogonalLoop=1;jettySize=auto;html=1;exitX=0.5;exitY=1;exitDx=0;exitDy=0;entryX=0.5;entryY=0;entryDx=0;entryDy=0;" parent="1" source="yEtqyaSCwH1MjNTmkDz6-1" target="yEtqyaSCwH1MjNTmkDz6-3" edge="1">
          <mxGeometry relative="1" as="geometry" />
        </mxCell>
        <mxCell id="yEtqyaSCwH1MjNTmkDz6-1" value="Li bat charger" style="rounded=0;whiteSpace=wrap;html=1;" parent="1" vertex="1">
          <mxGeometry x="160" y="390" width="120" height="60" as="geometry" />
        </mxCell>
        <mxCell id="yEtqyaSCwH1MjNTmkDz6-88" style="edgeStyle=orthogonalEdgeStyle;rounded=0;orthogonalLoop=1;jettySize=auto;html=1;exitX=1;exitY=0.5;exitDx=0;exitDy=0;entryX=0.5;entryY=1;entryDx=0;entryDy=0;" parent="1" source="yEtqyaSCwH1MjNTmkDz6-3" target="yEtqyaSCwH1MjNTmkDz6-6" edge="1">
          <mxGeometry relative="1" as="geometry" />
        </mxCell>
        <mxCell id="yEtqyaSCwH1MjNTmkDz6-148" style="edgeStyle=orthogonalEdgeStyle;rounded=0;orthogonalLoop=1;jettySize=auto;html=1;exitX=1;exitY=0.5;exitDx=0;exitDy=0;entryX=0.5;entryY=1;entryDx=0;entryDy=0;" parent="1" source="yEtqyaSCwH1MjNTmkDz6-3" target="yEtqyaSCwH1MjNTmkDz6-140" edge="1">
          <mxGeometry relative="1" as="geometry" />
        </mxCell>
        <mxCell id="yEtqyaSCwH1MjNTmkDz6-3" value="Li bat 2S" style="rounded=1;whiteSpace=wrap;html=1;" parent="1" vertex="1">
          <mxGeometry x="170" y="490" width="100" height="55" as="geometry" />
        </mxCell>
        <mxCell id="yEtqyaSCwH1MjNTmkDz6-8" style="edgeStyle=orthogonalEdgeStyle;rounded=0;orthogonalLoop=1;jettySize=auto;html=1;exitX=1;exitY=0.5;exitDx=0;exitDy=0;entryX=0.5;entryY=1;entryDx=0;entryDy=0;" parent="1" source="yEtqyaSCwH1MjNTmkDz6-3" target="yEtqyaSCwH1MjNTmkDz6-6" edge="1">
          <mxGeometry relative="1" as="geometry" />
        </mxCell>
        <mxCell id="yEtqyaSCwH1MjNTmkDz6-10" value="7.4V" style="edgeLabel;html=1;align=center;verticalAlign=middle;resizable=0;points=[];" parent="yEtqyaSCwH1MjNTmkDz6-8" connectable="0" vertex="1">
          <mxGeometry x="0.6678" y="1" relative="1" as="geometry">
            <mxPoint x="-269" y="5" as="offset" />
          </mxGeometry>
        </mxCell>
        <mxCell id="yEtqyaSCwH1MjNTmkDz6-85" style="edgeStyle=orthogonalEdgeStyle;rounded=0;orthogonalLoop=1;jettySize=auto;html=1;exitX=0.5;exitY=0;exitDx=0;exitDy=0;entryX=1;entryY=0.75;entryDx=0;entryDy=0;" parent="1" source="yEtqyaSCwH1MjNTmkDz6-6" target="yEtqyaSCwH1MjNTmkDz6-119" edge="1">
          <mxGeometry relative="1" as="geometry">
            <mxPoint x="500" y="346" as="targetPoint" />
          </mxGeometry>
        </mxCell>
        <mxCell id="yEtqyaSCwH1MjNTmkDz6-86" value="5V" style="edgeLabel;html=1;align=center;verticalAlign=middle;resizable=0;points=[];" parent="yEtqyaSCwH1MjNTmkDz6-85" vertex="1" connectable="0">
          <mxGeometry x="-0.1265" relative="1" as="geometry">
            <mxPoint y="15" as="offset" />
          </mxGeometry>
        </mxCell>
        <mxCell id="yEtqyaSCwH1MjNTmkDz6-6" value="DC-DC(2A)" style="rounded=0;whiteSpace=wrap;html=1;" parent="1" vertex="1">
          <mxGeometry x="520" y="390" width="120" height="60" as="geometry" />
        </mxCell>
        <mxCell id="yEtqyaSCwH1MjNTmkDz6-12" value="raspberry CM4" style="rounded=0;whiteSpace=wrap;html=1;" parent="1" vertex="1">
          <mxGeometry x="520" y="110" width="120" height="60" as="geometry" />
        </mxCell>
        <mxCell id="yEtqyaSCwH1MjNTmkDz6-13" value="WIFI" style="rounded=0;whiteSpace=wrap;html=1;" parent="1" vertex="1">
          <mxGeometry x="680" y="110" width="120" height="60" as="geometry" />
        </mxCell>
        <mxCell id="yEtqyaSCwH1MjNTmkDz6-67" style="edgeStyle=orthogonalEdgeStyle;rounded=0;orthogonalLoop=1;jettySize=auto;html=1;exitX=0.5;exitY=0;exitDx=0;exitDy=0;entryX=0.5;entryY=0;entryDx=0;entryDy=0;" parent="1" source="yEtqyaSCwH1MjNTmkDz6-53" target="yEtqyaSCwH1MjNTmkDz6-12" edge="1">
          <mxGeometry relative="1" as="geometry">
            <Array as="points">
              <mxPoint x="165" y="75" />
              <mxPoint x="580" y="75" />
            </Array>
          </mxGeometry>
        </mxCell>
        <mxCell id="yEtqyaSCwH1MjNTmkDz6-70" style="edgeStyle=orthogonalEdgeStyle;rounded=0;orthogonalLoop=1;jettySize=auto;html=1;exitX=0;exitY=0.5;exitDx=0;exitDy=0;" parent="1" source="yEtqyaSCwH1MjNTmkDz6-53" target="yEtqyaSCwH1MjNTmkDz6-54" edge="1">
          <mxGeometry relative="1" as="geometry" />
        </mxCell>
        <mxCell id="yEtqyaSCwH1MjNTmkDz6-71" value="Data" style="edgeLabel;html=1;align=center;verticalAlign=middle;resizable=0;points=[];" parent="yEtqyaSCwH1MjNTmkDz6-70" vertex="1" connectable="0">
          <mxGeometry x="0.089" y="-3" relative="1" as="geometry">
            <mxPoint as="offset" />
          </mxGeometry>
        </mxCell>
        <mxCell id="yEtqyaSCwH1MjNTmkDz6-53" value="USB&lt;br&gt;switch" style="rounded=0;whiteSpace=wrap;html=1;" parent="1" vertex="1">
          <mxGeometry x="140" y="110" width="50" height="60" as="geometry" />
        </mxCell>
        <mxCell id="yEtqyaSCwH1MjNTmkDz6-54" value="USB" style="shape=trapezoid;perimeter=trapezoidPerimeter;whiteSpace=wrap;html=1;fixedSize=1;rotation=90;" parent="1" vertex="1">
          <mxGeometry x="50" y="296.25" width="90" height="45" as="geometry" />
        </mxCell>
        <mxCell id="yEtqyaSCwH1MjNTmkDz6-65" style="edgeStyle=orthogonalEdgeStyle;rounded=0;orthogonalLoop=1;jettySize=auto;html=1;exitX=0;exitY=0.5;exitDx=0;exitDy=0;entryX=1;entryY=0.5;entryDx=0;entryDy=0;" parent="1" source="yEtqyaSCwH1MjNTmkDz6-55" target="yEtqyaSCwH1MjNTmkDz6-53" edge="1">
          <mxGeometry relative="1" as="geometry" />
        </mxCell>
        <mxCell id="yEtqyaSCwH1MjNTmkDz6-66" value="CDC" style="edgeLabel;html=1;align=center;verticalAlign=middle;resizable=0;points=[];" parent="yEtqyaSCwH1MjNTmkDz6-65" vertex="1" connectable="0">
          <mxGeometry x="-0.1848" y="1" relative="1" as="geometry">
            <mxPoint as="offset" />
          </mxGeometry>
        </mxCell>
        <mxCell id="yEtqyaSCwH1MjNTmkDz6-55" value="MCU" style="rounded=0;whiteSpace=wrap;html=1;" parent="1" vertex="1">
          <mxGeometry x="285" y="115" width="120" height="60" as="geometry" />
        </mxCell>
        <mxCell id="yEtqyaSCwH1MjNTmkDz6-82" style="edgeStyle=orthogonalEdgeStyle;rounded=0;orthogonalLoop=1;jettySize=auto;html=1;exitX=0.5;exitY=0;exitDx=0;exitDy=0;entryX=0.5;entryY=1;entryDx=0;entryDy=0;" parent="1" source="yEtqyaSCwH1MjNTmkDz6-57" target="yEtqyaSCwH1MjNTmkDz6-55" edge="1">
          <mxGeometry relative="1" as="geometry" />
        </mxCell>
        <mxCell id="yEtqyaSCwH1MjNTmkDz6-149" value="3V3" style="edgeLabel;html=1;align=center;verticalAlign=middle;resizable=0;points=[];" parent="yEtqyaSCwH1MjNTmkDz6-82" vertex="1" connectable="0">
          <mxGeometry x="-0.0781" y="2" relative="1" as="geometry">
            <mxPoint as="offset" />
          </mxGeometry>
        </mxCell>
        <mxCell id="yEtqyaSCwH1MjNTmkDz6-57" value="LDO" style="rounded=0;whiteSpace=wrap;html=1;" parent="1" vertex="1">
          <mxGeometry x="320" y="205" width="50" height="30" as="geometry" />
        </mxCell>
        <mxCell id="yEtqyaSCwH1MjNTmkDz6-93" value="" style="endArrow=none;html=1;rounded=0;startArrow=oval;startFill=1;" parent="1" edge="1">
          <mxGeometry width="50" height="50" relative="1" as="geometry">
            <mxPoint x="300" y="255" as="sourcePoint" />
            <mxPoint x="300" y="255" as="targetPoint" />
          </mxGeometry>
        </mxCell>
        <mxCell id="yEtqyaSCwH1MjNTmkDz6-96" value="1" style="text;html=1;strokeColor=none;fillColor=none;align=center;verticalAlign=middle;whiteSpace=wrap;rounded=0;" parent="1" vertex="1">
          <mxGeometry x="170" y="80" width="10" height="25" as="geometry" />
        </mxCell>
        <mxCell id="yEtqyaSCwH1MjNTmkDz6-97" value="2" style="text;html=1;strokeColor=none;fillColor=none;align=center;verticalAlign=middle;whiteSpace=wrap;rounded=0;" parent="1" vertex="1">
          <mxGeometry x="90" y="135" width="60" height="30" as="geometry" />
        </mxCell>
        <mxCell id="yEtqyaSCwH1MjNTmkDz6-107" value="" style="endArrow=classic;html=1;rounded=0;exitX=0.5;exitY=0;exitDx=0;exitDy=0;entryX=0;entryY=0.25;entryDx=0;entryDy=0;" parent="1" source="yEtqyaSCwH1MjNTmkDz6-54" target="yEtqyaSCwH1MjNTmkDz6-118" edge="1">
          <mxGeometry width="50" height="50" relative="1" as="geometry">
            <mxPoint x="220" y="310" as="sourcePoint" />
            <mxPoint x="295" y="310" as="targetPoint" />
          </mxGeometry>
        </mxCell>
        <mxCell id="yEtqyaSCwH1MjNTmkDz6-117" value="5V" style="edgeLabel;html=1;align=center;verticalAlign=middle;resizable=0;points=[];" parent="yEtqyaSCwH1MjNTmkDz6-107" vertex="1" connectable="0">
          <mxGeometry x="-0.6981" y="1" relative="1" as="geometry">
            <mxPoint as="offset" />
          </mxGeometry>
        </mxCell>
        <mxCell id="yEtqyaSCwH1MjNTmkDz6-116" style="edgeStyle=orthogonalEdgeStyle;rounded=0;orthogonalLoop=1;jettySize=auto;html=1;entryX=0.5;entryY=0;entryDx=0;entryDy=0;exitX=0;exitY=0.75;exitDx=0;exitDy=0;" parent="1" source="yEtqyaSCwH1MjNTmkDz6-118" target="yEtqyaSCwH1MjNTmkDz6-1" edge="1">
          <mxGeometry relative="1" as="geometry">
            <mxPoint x="295" y="330" as="sourcePoint" />
          </mxGeometry>
        </mxCell>
        <mxCell id="yEtqyaSCwH1MjNTmkDz6-122" style="edgeStyle=orthogonalEdgeStyle;rounded=0;orthogonalLoop=1;jettySize=auto;html=1;exitX=0;exitY=0.5;exitDx=0;exitDy=0;entryX=1;entryY=0.5;entryDx=0;entryDy=0;" parent="1" source="yEtqyaSCwH1MjNTmkDz6-115" target="yEtqyaSCwH1MjNTmkDz6-118" edge="1">
          <mxGeometry relative="1" as="geometry" />
        </mxCell>
        <mxCell id="yEtqyaSCwH1MjNTmkDz6-123" style="edgeStyle=orthogonalEdgeStyle;rounded=0;orthogonalLoop=1;jettySize=auto;html=1;exitX=1;exitY=0.5;exitDx=0;exitDy=0;entryX=0;entryY=0.5;entryDx=0;entryDy=0;" parent="1" source="yEtqyaSCwH1MjNTmkDz6-115" target="yEtqyaSCwH1MjNTmkDz6-119" edge="1">
          <mxGeometry relative="1" as="geometry" />
        </mxCell>
        <mxCell id="yEtqyaSCwH1MjNTmkDz6-115" value="switch" style="rounded=0;whiteSpace=wrap;html=1;" parent="1" vertex="1">
          <mxGeometry x="395" y="278.13" width="46" height="95" as="geometry" />
        </mxCell>
        <mxCell id="yEtqyaSCwH1MjNTmkDz6-118" value="PMOS" style="rounded=0;whiteSpace=wrap;html=1;" parent="1" vertex="1">
          <mxGeometry x="300" y="310" width="55" height="31.25" as="geometry" />
        </mxCell>
        <mxCell id="yEtqyaSCwH1MjNTmkDz6-137" style="edgeStyle=orthogonalEdgeStyle;rounded=0;orthogonalLoop=1;jettySize=auto;html=1;exitX=1;exitY=0.25;exitDx=0;exitDy=0;entryX=0.5;entryY=1;entryDx=0;entryDy=0;" parent="1" source="yEtqyaSCwH1MjNTmkDz6-119" target="yEtqyaSCwH1MjNTmkDz6-12" edge="1">
          <mxGeometry relative="1" as="geometry">
            <Array as="points">
              <mxPoint x="580" y="318" />
              <mxPoint x="580" y="170" />
            </Array>
          </mxGeometry>
        </mxCell>
        <mxCell id="yEtqyaSCwH1MjNTmkDz6-119" value="PMOS" style="rounded=0;whiteSpace=wrap;html=1;" parent="1" vertex="1">
          <mxGeometry x="480" y="310.01" width="55" height="31.25" as="geometry" />
        </mxCell>
        <mxCell id="yEtqyaSCwH1MjNTmkDz6-132" value="" style="endArrow=classic;html=1;rounded=0;entryX=0;entryY=0.25;entryDx=0;entryDy=0;" parent="1" target="yEtqyaSCwH1MjNTmkDz6-115" edge="1">
          <mxGeometry width="50" height="50" relative="1" as="geometry">
            <mxPoint x="365" y="302" as="sourcePoint" />
            <mxPoint x="385" y="250" as="targetPoint" />
          </mxGeometry>
        </mxCell>
        <mxCell id="yEtqyaSCwH1MjNTmkDz6-133" value="DC_5" style="text;html=1;strokeColor=none;fillColor=none;align=center;verticalAlign=middle;whiteSpace=wrap;rounded=0;" parent="1" vertex="1">
          <mxGeometry x="340" y="278" width="60" height="30" as="geometry" />
        </mxCell>
        <mxCell id="yEtqyaSCwH1MjNTmkDz6-134" value="" style="endArrow=classic;html=1;rounded=0;entryX=1;entryY=0.75;entryDx=0;entryDy=0;" parent="1" target="yEtqyaSCwH1MjNTmkDz6-115" edge="1">
          <mxGeometry width="50" height="50" relative="1" as="geometry">
            <mxPoint x="475" y="349" as="sourcePoint" />
            <mxPoint x="500" y="360" as="targetPoint" />
          </mxGeometry>
        </mxCell>
        <mxCell id="yEtqyaSCwH1MjNTmkDz6-135" value="DC_5" style="text;html=1;strokeColor=none;fillColor=none;align=center;verticalAlign=middle;whiteSpace=wrap;rounded=0;" parent="1" vertex="1">
          <mxGeometry x="435" y="343.13" width="60" height="30" as="geometry" />
        </mxCell>
        <mxCell id="yEtqyaSCwH1MjNTmkDz6-136" value="DC_5" style="text;html=1;strokeColor=none;fillColor=none;align=center;verticalAlign=middle;whiteSpace=wrap;rounded=0;" parent="1" vertex="1">
          <mxGeometry x="550" y="385" width="60" height="30" as="geometry" />
        </mxCell>
        <mxCell id="yEtqyaSCwH1MjNTmkDz6-146" style="edgeStyle=orthogonalEdgeStyle;rounded=0;orthogonalLoop=1;jettySize=auto;html=1;exitX=1;exitY=0.25;exitDx=0;exitDy=0;entryX=0.5;entryY=1;entryDx=0;entryDy=0;" parent="1" source="yEtqyaSCwH1MjNTmkDz6-139" target="yEtqyaSCwH1MjNTmkDz6-13" edge="1">
          <mxGeometry relative="1" as="geometry" />
        </mxCell>
        <mxCell id="yEtqyaSCwH1MjNTmkDz6-139" value="PMOS" style="rounded=0;whiteSpace=wrap;html=1;" parent="1" vertex="1">
          <mxGeometry x="640" y="311.88" width="55" height="31.25" as="geometry" />
        </mxCell>
        <mxCell id="yEtqyaSCwH1MjNTmkDz6-145" style="edgeStyle=orthogonalEdgeStyle;rounded=0;orthogonalLoop=1;jettySize=auto;html=1;exitX=0.5;exitY=0;exitDx=0;exitDy=0;entryX=1;entryY=0.75;entryDx=0;entryDy=0;" parent="1" source="yEtqyaSCwH1MjNTmkDz6-140" target="yEtqyaSCwH1MjNTmkDz6-139" edge="1">
          <mxGeometry relative="1" as="geometry" />
        </mxCell>
        <mxCell id="yEtqyaSCwH1MjNTmkDz6-147" value="3V3" style="edgeLabel;html=1;align=center;verticalAlign=middle;resizable=0;points=[];" parent="yEtqyaSCwH1MjNTmkDz6-145" vertex="1" connectable="0">
          <mxGeometry x="-0.496" relative="1" as="geometry">
            <mxPoint as="offset" />
          </mxGeometry>
        </mxCell>
        <mxCell id="yEtqyaSCwH1MjNTmkDz6-140" value="DC-DC(2A)" style="rounded=0;whiteSpace=wrap;html=1;" parent="1" vertex="1">
          <mxGeometry x="680" y="390" width="120" height="60" as="geometry" />
        </mxCell>
        <mxCell id="yEtqyaSCwH1MjNTmkDz6-141" value="DC_3V3" style="text;html=1;strokeColor=none;fillColor=none;align=center;verticalAlign=middle;whiteSpace=wrap;rounded=0;" parent="1" vertex="1">
          <mxGeometry x="705" y="385" width="60" height="30" as="geometry" />
        </mxCell>
        <mxCell id="yEtqyaSCwH1MjNTmkDz6-142" value="S_Bat" style="text;html=1;strokeColor=none;fillColor=none;align=center;verticalAlign=middle;whiteSpace=wrap;rounded=0;" parent="1" vertex="1">
          <mxGeometry x="430" y="300" width="60" height="30" as="geometry" />
        </mxCell>
        <mxCell id="yEtqyaSCwH1MjNTmkDz6-143" value="" style="endArrow=classic;html=1;rounded=0;entryX=0;entryY=0.5;entryDx=0;entryDy=0;" parent="1" target="yEtqyaSCwH1MjNTmkDz6-139" edge="1">
          <mxGeometry width="50" height="50" relative="1" as="geometry">
            <mxPoint x="595" y="328" as="sourcePoint" />
            <mxPoint x="645" y="310" as="targetPoint" />
          </mxGeometry>
        </mxCell>
        <mxCell id="yEtqyaSCwH1MjNTmkDz6-144" value="S_Bat" style="text;html=1;strokeColor=none;fillColor=none;align=center;verticalAlign=middle;whiteSpace=wrap;rounded=0;" parent="1" vertex="1">
          <mxGeometry x="580" y="300" width="60" height="30" as="geometry" />
        </mxCell>
        <mxCell id="yEtqyaSCwH1MjNTmkDz6-150" value="USB_5V" style="text;html=1;strokeColor=none;fillColor=none;align=center;verticalAlign=middle;whiteSpace=wrap;rounded=0;" parent="1" vertex="1">
          <mxGeometry x="190" y="385" width="60" height="30" as="geometry" />
        </mxCell>
        <mxCell id="yEtqyaSCwH1MjNTmkDz6-152" value="" style="endArrow=classic;html=1;rounded=0;entryX=0.5;entryY=1;entryDx=0;entryDy=0;" parent="1" target="yEtqyaSCwH1MjNTmkDz6-57" edge="1">
          <mxGeometry width="50" height="50" relative="1" as="geometry">
            <mxPoint x="345" y="260" as="sourcePoint" />
            <mxPoint x="345" y="240" as="targetPoint" />
          </mxGeometry>
        </mxCell>
        <mxCell id="yEtqyaSCwH1MjNTmkDz6-153" value="" style="endArrow=none;html=1;rounded=0;" parent="1" edge="1">
          <mxGeometry width="50" height="50" relative="1" as="geometry">
            <mxPoint x="480" y="260" as="sourcePoint" />
            <mxPoint x="580" y="260" as="targetPoint" />
          </mxGeometry>
        </mxCell>
        <mxCell id="yEtqyaSCwH1MjNTmkDz6-154" value="USB_5V" style="text;html=1;strokeColor=none;fillColor=none;align=center;verticalAlign=middle;whiteSpace=wrap;rounded=0;" parent="1" vertex="1">
          <mxGeometry x="260" y="235" width="60" height="30" as="geometry" />
        </mxCell>
        <mxCell id="yEtqyaSCwH1MjNTmkDz6-155" value="" style="endArrow=none;html=1;rounded=0;" parent="1" edge="1">
          <mxGeometry width="50" height="50" relative="1" as="geometry">
            <mxPoint x="260" y="260" as="sourcePoint" />
            <mxPoint x="345" y="260" as="targetPoint" />
          </mxGeometry>
        </mxCell>
        <mxCell id="yEtqyaSCwH1MjNTmkDz6-156" value="USB_5V" style="text;html=1;strokeColor=none;fillColor=none;align=center;verticalAlign=middle;whiteSpace=wrap;rounded=0;" parent="1" vertex="1">
          <mxGeometry x="160" y="175" width="60" height="30" as="geometry" />
        </mxCell>
        <mxCell id="yEtqyaSCwH1MjNTmkDz6-157" value="" style="endArrow=none;html=1;rounded=0;entryX=0.5;entryY=1;entryDx=0;entryDy=0;" parent="1" target="yEtqyaSCwH1MjNTmkDz6-53" edge="1">
          <mxGeometry width="50" height="50" relative="1" as="geometry">
            <mxPoint x="165" y="205" as="sourcePoint" />
            <mxPoint x="170" y="180" as="targetPoint" />
          </mxGeometry>
        </mxCell>
        <mxCell id="yEtqyaSCwH1MjNTmkDz6-158" value="" style="triangle;whiteSpace=wrap;html=1;rotation=-180;" parent="1" vertex="1">
          <mxGeometry x="460" y="245" width="20" height="30" as="geometry" />
        </mxCell>
        <mxCell id="yEtqyaSCwH1MjNTmkDz6-161" value="" style="endArrow=none;html=1;rounded=0;" parent="1" edge="1">
          <mxGeometry width="50" height="50" relative="1" as="geometry">
            <mxPoint x="460" y="280" as="sourcePoint" />
            <mxPoint x="460" y="240" as="targetPoint" />
          </mxGeometry>
        </mxCell>
        <mxCell id="yEtqyaSCwH1MjNTmkDz6-162" value="" style="endArrow=none;html=1;rounded=0;" parent="1" edge="1">
          <mxGeometry width="50" height="50" relative="1" as="geometry">
            <mxPoint x="345" y="260" as="sourcePoint" />
            <mxPoint x="460" y="260" as="targetPoint" />
          </mxGeometry>
        </mxCell>
        <mxCell id="yEtqyaSCwH1MjNTmkDz6-163" value="4.5V" style="edgeLabel;html=1;align=center;verticalAlign=middle;resizable=0;points=[];" parent="yEtqyaSCwH1MjNTmkDz6-162" vertex="1" connectable="0">
          <mxGeometry x="0.0396" y="-1" relative="1" as="geometry">
            <mxPoint as="offset" />
          </mxGeometry>
        </mxCell>
      </root>
    </mxGraphModel>
  </diagram>
  <diagram id="XbvzGmzsIIB6ySulPBAE" name="第 2 页">
    <mxGraphModel dx="1077" dy="564" grid="1" gridSize="10" guides="1" tooltips="1" connect="1" arrows="1" fold="1" page="1" pageScale="1" pageWidth="827" pageHeight="1169" math="0" shadow="0">
      <root>
        <mxCell id="0" />
        <mxCell id="1" parent="0" />
        <mxCell id="v6Ifo-EGwxRaasYGGxyW-1" style="edgeStyle=orthogonalEdgeStyle;rounded=0;orthogonalLoop=1;jettySize=auto;html=1;exitX=0.5;exitY=1;exitDx=0;exitDy=0;entryX=0.5;entryY=0;entryDx=0;entryDy=0;" edge="1" parent="1" source="v6Ifo-EGwxRaasYGGxyW-2" target="v6Ifo-EGwxRaasYGGxyW-5">
          <mxGeometry relative="1" as="geometry" />
        </mxCell>
        <mxCell id="v6Ifo-EGwxRaasYGGxyW-2" value="Li bat charger" style="rounded=0;whiteSpace=wrap;html=1;" vertex="1" parent="1">
          <mxGeometry x="160" y="390" width="120" height="60" as="geometry" />
        </mxCell>
        <mxCell id="v6Ifo-EGwxRaasYGGxyW-3" style="edgeStyle=orthogonalEdgeStyle;rounded=0;orthogonalLoop=1;jettySize=auto;html=1;exitX=1;exitY=0.5;exitDx=0;exitDy=0;entryX=0.5;entryY=1;entryDx=0;entryDy=0;" edge="1" parent="1" source="v6Ifo-EGwxRaasYGGxyW-5" target="v6Ifo-EGwxRaasYGGxyW-10">
          <mxGeometry relative="1" as="geometry" />
        </mxCell>
        <mxCell id="v6Ifo-EGwxRaasYGGxyW-4" style="edgeStyle=orthogonalEdgeStyle;rounded=0;orthogonalLoop=1;jettySize=auto;html=1;exitX=1;exitY=0.5;exitDx=0;exitDy=0;entryX=0.5;entryY=1;entryDx=0;entryDy=0;" edge="1" parent="1" source="v6Ifo-EGwxRaasYGGxyW-5" target="v6Ifo-EGwxRaasYGGxyW-45">
          <mxGeometry relative="1" as="geometry" />
        </mxCell>
        <mxCell id="v6Ifo-EGwxRaasYGGxyW-5" value="Li bat 2S" style="rounded=1;whiteSpace=wrap;html=1;" vertex="1" parent="1">
          <mxGeometry x="170" y="490" width="100" height="60" as="geometry" />
        </mxCell>
        <mxCell id="v6Ifo-EGwxRaasYGGxyW-6" style="edgeStyle=orthogonalEdgeStyle;rounded=0;orthogonalLoop=1;jettySize=auto;html=1;exitX=1;exitY=0.5;exitDx=0;exitDy=0;entryX=0.5;entryY=1;entryDx=0;entryDy=0;" edge="1" parent="1" source="v6Ifo-EGwxRaasYGGxyW-5" target="v6Ifo-EGwxRaasYGGxyW-10">
          <mxGeometry relative="1" as="geometry" />
        </mxCell>
        <mxCell id="v6Ifo-EGwxRaasYGGxyW-7" value="7.4V" style="edgeLabel;html=1;align=center;verticalAlign=middle;resizable=0;points=[];" connectable="0" vertex="1" parent="v6Ifo-EGwxRaasYGGxyW-6">
          <mxGeometry x="0.6678" y="1" relative="1" as="geometry">
            <mxPoint x="-269" y="5" as="offset" />
          </mxGeometry>
        </mxCell>
        <mxCell id="v6Ifo-EGwxRaasYGGxyW-8" style="edgeStyle=orthogonalEdgeStyle;rounded=0;orthogonalLoop=1;jettySize=auto;html=1;exitX=0.5;exitY=0;exitDx=0;exitDy=0;entryX=0.5;entryY=1;entryDx=0;entryDy=0;" edge="1" parent="1" source="v6Ifo-EGwxRaasYGGxyW-10" target="v6Ifo-EGwxRaasYGGxyW-11">
          <mxGeometry relative="1" as="geometry">
            <mxPoint x="535" y="333.4475" as="targetPoint" />
          </mxGeometry>
        </mxCell>
        <mxCell id="v6Ifo-EGwxRaasYGGxyW-9" value="5V" style="edgeLabel;html=1;align=center;verticalAlign=middle;resizable=0;points=[];" vertex="1" connectable="0" parent="v6Ifo-EGwxRaasYGGxyW-8">
          <mxGeometry x="-0.1265" relative="1" as="geometry">
            <mxPoint y="15" as="offset" />
          </mxGeometry>
        </mxCell>
        <mxCell id="v6Ifo-EGwxRaasYGGxyW-10" value="DC-DC(4A)" style="rounded=0;whiteSpace=wrap;html=1;" vertex="1" parent="1">
          <mxGeometry x="520" y="390" width="120" height="60" as="geometry" />
        </mxCell>
        <mxCell id="v6Ifo-EGwxRaasYGGxyW-11" value="raspberry CM4" style="rounded=0;whiteSpace=wrap;html=1;" vertex="1" parent="1">
          <mxGeometry x="520" y="110" width="120" height="60" as="geometry" />
        </mxCell>
        <mxCell id="v6Ifo-EGwxRaasYGGxyW-12" value="WIFI" style="rounded=0;whiteSpace=wrap;html=1;" vertex="1" parent="1">
          <mxGeometry x="680" y="110" width="120" height="60" as="geometry" />
        </mxCell>
        <mxCell id="v6Ifo-EGwxRaasYGGxyW-13" style="edgeStyle=orthogonalEdgeStyle;rounded=0;orthogonalLoop=1;jettySize=auto;html=1;exitX=0.5;exitY=0;exitDx=0;exitDy=0;entryX=0.5;entryY=0;entryDx=0;entryDy=0;" edge="1" parent="1" source="v6Ifo-EGwxRaasYGGxyW-16" target="v6Ifo-EGwxRaasYGGxyW-11">
          <mxGeometry relative="1" as="geometry">
            <Array as="points">
              <mxPoint x="165" y="75" />
              <mxPoint x="580" y="75" />
            </Array>
          </mxGeometry>
        </mxCell>
        <mxCell id="v6Ifo-EGwxRaasYGGxyW-14" style="edgeStyle=orthogonalEdgeStyle;rounded=0;orthogonalLoop=1;jettySize=auto;html=1;exitX=0;exitY=0.5;exitDx=0;exitDy=0;" edge="1" parent="1" source="v6Ifo-EGwxRaasYGGxyW-16" target="v6Ifo-EGwxRaasYGGxyW-17">
          <mxGeometry relative="1" as="geometry" />
        </mxCell>
        <mxCell id="v6Ifo-EGwxRaasYGGxyW-15" value="Data" style="edgeLabel;html=1;align=center;verticalAlign=middle;resizable=0;points=[];" vertex="1" connectable="0" parent="v6Ifo-EGwxRaasYGGxyW-14">
          <mxGeometry x="0.089" y="-3" relative="1" as="geometry">
            <mxPoint as="offset" />
          </mxGeometry>
        </mxCell>
        <mxCell id="v6Ifo-EGwxRaasYGGxyW-16" value="USB&lt;br&gt;switch" style="rounded=0;whiteSpace=wrap;html=1;" vertex="1" parent="1">
          <mxGeometry x="130" y="115" width="60" height="60" as="geometry" />
        </mxCell>
        <mxCell id="v6Ifo-EGwxRaasYGGxyW-17" value="USB" style="shape=trapezoid;perimeter=trapezoidPerimeter;whiteSpace=wrap;html=1;fixedSize=1;rotation=90;" vertex="1" parent="1">
          <mxGeometry x="50" y="296.26" width="90" height="45" as="geometry" />
        </mxCell>
        <mxCell id="v6Ifo-EGwxRaasYGGxyW-18" style="edgeStyle=orthogonalEdgeStyle;rounded=0;orthogonalLoop=1;jettySize=auto;html=1;exitX=0;exitY=0.5;exitDx=0;exitDy=0;entryX=1;entryY=0.5;entryDx=0;entryDy=0;" edge="1" parent="1" source="v6Ifo-EGwxRaasYGGxyW-20" target="v6Ifo-EGwxRaasYGGxyW-16">
          <mxGeometry relative="1" as="geometry" />
        </mxCell>
        <mxCell id="v6Ifo-EGwxRaasYGGxyW-19" value="CDC" style="edgeLabel;html=1;align=center;verticalAlign=middle;resizable=0;points=[];" vertex="1" connectable="0" parent="v6Ifo-EGwxRaasYGGxyW-18">
          <mxGeometry x="-0.1848" y="1" relative="1" as="geometry">
            <mxPoint as="offset" />
          </mxGeometry>
        </mxCell>
        <mxCell id="v6Ifo-EGwxRaasYGGxyW-20" value="MCU" style="rounded=0;whiteSpace=wrap;html=1;" vertex="1" parent="1">
          <mxGeometry x="285" y="115" width="120" height="60" as="geometry" />
        </mxCell>
        <mxCell id="v6Ifo-EGwxRaasYGGxyW-21" style="edgeStyle=orthogonalEdgeStyle;rounded=0;orthogonalLoop=1;jettySize=auto;html=1;exitX=0.5;exitY=0;exitDx=0;exitDy=0;entryX=0.5;entryY=1;entryDx=0;entryDy=0;" edge="1" parent="1" source="v6Ifo-EGwxRaasYGGxyW-23" target="v6Ifo-EGwxRaasYGGxyW-20">
          <mxGeometry relative="1" as="geometry" />
        </mxCell>
        <mxCell id="v6Ifo-EGwxRaasYGGxyW-22" value="3V3" style="edgeLabel;html=1;align=center;verticalAlign=middle;resizable=0;points=[];" vertex="1" connectable="0" parent="v6Ifo-EGwxRaasYGGxyW-21">
          <mxGeometry x="-0.0781" y="2" relative="1" as="geometry">
            <mxPoint as="offset" />
          </mxGeometry>
        </mxCell>
        <mxCell id="v6Ifo-EGwxRaasYGGxyW-23" value="LDO" style="rounded=0;whiteSpace=wrap;html=1;" vertex="1" parent="1">
          <mxGeometry x="320" y="205" width="50" height="30" as="geometry" />
        </mxCell>
        <mxCell id="v6Ifo-EGwxRaasYGGxyW-24" value="" style="endArrow=none;html=1;rounded=0;startArrow=oval;startFill=1;" edge="1" parent="1">
          <mxGeometry width="50" height="50" relative="1" as="geometry">
            <mxPoint x="300" y="255" as="sourcePoint" />
            <mxPoint x="300" y="255" as="targetPoint" />
          </mxGeometry>
        </mxCell>
        <mxCell id="v6Ifo-EGwxRaasYGGxyW-25" value="1" style="text;html=1;strokeColor=none;fillColor=none;align=center;verticalAlign=middle;whiteSpace=wrap;rounded=0;" vertex="1" parent="1">
          <mxGeometry x="170" y="80" width="10" height="25" as="geometry" />
        </mxCell>
        <mxCell id="v6Ifo-EGwxRaasYGGxyW-26" value="2" style="text;html=1;strokeColor=none;fillColor=none;align=center;verticalAlign=middle;whiteSpace=wrap;rounded=0;" vertex="1" parent="1">
          <mxGeometry x="90" y="135" width="60" height="30" as="geometry" />
        </mxCell>
        <mxCell id="v6Ifo-EGwxRaasYGGxyW-27" value="" style="endArrow=classic;html=1;rounded=0;exitX=0.5;exitY=0;exitDx=0;exitDy=0;entryX=0;entryY=0.25;entryDx=0;entryDy=0;" edge="1" parent="1" source="v6Ifo-EGwxRaasYGGxyW-17" target="v6Ifo-EGwxRaasYGGxyW-33">
          <mxGeometry width="50" height="50" relative="1" as="geometry">
            <mxPoint x="220" y="310" as="sourcePoint" />
            <mxPoint x="295" y="310" as="targetPoint" />
          </mxGeometry>
        </mxCell>
        <mxCell id="v6Ifo-EGwxRaasYGGxyW-28" value="5V" style="edgeLabel;html=1;align=center;verticalAlign=middle;resizable=0;points=[];" vertex="1" connectable="0" parent="v6Ifo-EGwxRaasYGGxyW-27">
          <mxGeometry x="-0.6981" y="1" relative="1" as="geometry">
            <mxPoint as="offset" />
          </mxGeometry>
        </mxCell>
        <mxCell id="v6Ifo-EGwxRaasYGGxyW-29" style="edgeStyle=orthogonalEdgeStyle;rounded=0;orthogonalLoop=1;jettySize=auto;html=1;entryX=0.5;entryY=0;entryDx=0;entryDy=0;exitX=0;exitY=0.75;exitDx=0;exitDy=0;" edge="1" parent="1" source="v6Ifo-EGwxRaasYGGxyW-33" target="v6Ifo-EGwxRaasYGGxyW-2">
          <mxGeometry relative="1" as="geometry">
            <mxPoint x="295" y="330" as="sourcePoint" />
          </mxGeometry>
        </mxCell>
        <mxCell id="v6Ifo-EGwxRaasYGGxyW-30" style="edgeStyle=orthogonalEdgeStyle;rounded=0;orthogonalLoop=1;jettySize=auto;html=1;exitX=0;exitY=0.5;exitDx=0;exitDy=0;entryX=1;entryY=0.5;entryDx=0;entryDy=0;" edge="1" parent="1" source="v6Ifo-EGwxRaasYGGxyW-32" target="v6Ifo-EGwxRaasYGGxyW-33">
          <mxGeometry relative="1" as="geometry" />
        </mxCell>
        <mxCell id="oB0e9h7nOE4ZnNeMf3d7-11" style="edgeStyle=orthogonalEdgeStyle;rounded=0;orthogonalLoop=1;jettySize=auto;html=1;exitX=1;exitY=0.5;exitDx=0;exitDy=0;entryX=0;entryY=0.5;entryDx=0;entryDy=0;" edge="1" parent="1" source="v6Ifo-EGwxRaasYGGxyW-32" target="v6Ifo-EGwxRaasYGGxyW-66">
          <mxGeometry relative="1" as="geometry">
            <Array as="points">
              <mxPoint x="500" y="326" />
              <mxPoint x="500" y="420" />
            </Array>
          </mxGeometry>
        </mxCell>
        <mxCell id="v6Ifo-EGwxRaasYGGxyW-32" value="switch" style="rounded=0;whiteSpace=wrap;html=1;" vertex="1" parent="1">
          <mxGeometry x="395" y="278.13" width="46" height="95" as="geometry" />
        </mxCell>
        <mxCell id="v6Ifo-EGwxRaasYGGxyW-33" value="PMOS" style="rounded=0;whiteSpace=wrap;html=1;" vertex="1" parent="1">
          <mxGeometry x="280" y="310.01" width="55" height="31.25" as="geometry" />
        </mxCell>
        <mxCell id="v6Ifo-EGwxRaasYGGxyW-40" value="DC_5" style="text;html=1;strokeColor=none;fillColor=none;align=center;verticalAlign=middle;whiteSpace=wrap;rounded=0;" vertex="1" parent="1">
          <mxGeometry x="550" y="385" width="60" height="30" as="geometry" />
        </mxCell>
        <mxCell id="v6Ifo-EGwxRaasYGGxyW-45" value="DC-DC(2A)" style="rounded=0;whiteSpace=wrap;html=1;" vertex="1" parent="1">
          <mxGeometry x="680" y="390" width="120" height="60" as="geometry" />
        </mxCell>
        <mxCell id="v6Ifo-EGwxRaasYGGxyW-46" value="DC_3V3" style="text;html=1;strokeColor=none;fillColor=none;align=center;verticalAlign=middle;whiteSpace=wrap;rounded=0;" vertex="1" parent="1">
          <mxGeometry x="705" y="385" width="60" height="30" as="geometry" />
        </mxCell>
        <mxCell id="v6Ifo-EGwxRaasYGGxyW-50" value="USB_5V" style="text;html=1;strokeColor=none;fillColor=none;align=center;verticalAlign=middle;whiteSpace=wrap;rounded=0;" vertex="1" parent="1">
          <mxGeometry x="190" y="385" width="60" height="30" as="geometry" />
        </mxCell>
        <mxCell id="v6Ifo-EGwxRaasYGGxyW-51" value="" style="endArrow=classic;html=1;rounded=0;entryX=0.5;entryY=1;entryDx=0;entryDy=0;" edge="1" parent="1" target="v6Ifo-EGwxRaasYGGxyW-23">
          <mxGeometry width="50" height="50" relative="1" as="geometry">
            <mxPoint x="345" y="260" as="sourcePoint" />
            <mxPoint x="345" y="240" as="targetPoint" />
          </mxGeometry>
        </mxCell>
        <mxCell id="v6Ifo-EGwxRaasYGGxyW-52" value="" style="endArrow=none;html=1;rounded=0;" edge="1" parent="1">
          <mxGeometry width="50" height="50" relative="1" as="geometry">
            <mxPoint x="480" y="260" as="sourcePoint" />
            <mxPoint x="580" y="260" as="targetPoint" />
          </mxGeometry>
        </mxCell>
        <mxCell id="v6Ifo-EGwxRaasYGGxyW-54" value="" style="endArrow=none;html=1;rounded=0;" edge="1" parent="1">
          <mxGeometry width="50" height="50" relative="1" as="geometry">
            <mxPoint x="300" y="260" as="sourcePoint" />
            <mxPoint x="345" y="260" as="targetPoint" />
          </mxGeometry>
        </mxCell>
        <mxCell id="v6Ifo-EGwxRaasYGGxyW-56" value="" style="endArrow=none;html=1;rounded=0;" edge="1" parent="1">
          <mxGeometry width="50" height="50" relative="1" as="geometry">
            <mxPoint x="160" y="320" as="sourcePoint" />
            <mxPoint x="160" y="260" as="targetPoint" />
          </mxGeometry>
        </mxCell>
        <mxCell id="v6Ifo-EGwxRaasYGGxyW-57" value="" style="triangle;whiteSpace=wrap;html=1;rotation=-180;" vertex="1" parent="1">
          <mxGeometry x="460" y="245" width="20" height="30" as="geometry" />
        </mxCell>
        <mxCell id="v6Ifo-EGwxRaasYGGxyW-58" value="" style="endArrow=none;html=1;rounded=0;" edge="1" parent="1">
          <mxGeometry width="50" height="50" relative="1" as="geometry">
            <mxPoint x="460" y="280" as="sourcePoint" />
            <mxPoint x="460" y="240" as="targetPoint" />
          </mxGeometry>
        </mxCell>
        <mxCell id="v6Ifo-EGwxRaasYGGxyW-59" value="" style="endArrow=none;html=1;rounded=0;" edge="1" parent="1">
          <mxGeometry width="50" height="50" relative="1" as="geometry">
            <mxPoint x="345" y="260" as="sourcePoint" />
            <mxPoint x="460" y="260" as="targetPoint" />
          </mxGeometry>
        </mxCell>
        <mxCell id="v6Ifo-EGwxRaasYGGxyW-60" value="4.5V" style="edgeLabel;html=1;align=center;verticalAlign=middle;resizable=0;points=[];" vertex="1" connectable="0" parent="v6Ifo-EGwxRaasYGGxyW-59">
          <mxGeometry x="0.0396" y="-1" relative="1" as="geometry">
            <mxPoint as="offset" />
          </mxGeometry>
        </mxCell>
        <mxCell id="v6Ifo-EGwxRaasYGGxyW-62" value="" style="triangle;whiteSpace=wrap;html=1;rotation=2;" vertex="1" parent="1">
          <mxGeometry x="280" y="245" width="20" height="30" as="geometry" />
        </mxCell>
        <mxCell id="v6Ifo-EGwxRaasYGGxyW-63" value="" style="endArrow=none;html=1;rounded=0;" edge="1" parent="1">
          <mxGeometry width="50" height="50" relative="1" as="geometry">
            <mxPoint x="300" y="280" as="sourcePoint" />
            <mxPoint x="300" y="240" as="targetPoint" />
          </mxGeometry>
        </mxCell>
        <mxCell id="v6Ifo-EGwxRaasYGGxyW-64" value="" style="endArrow=none;html=1;rounded=0;entryX=0;entryY=0.5;entryDx=0;entryDy=0;" edge="1" parent="1" target="v6Ifo-EGwxRaasYGGxyW-62">
          <mxGeometry width="50" height="50" relative="1" as="geometry">
            <mxPoint x="160" y="260" as="sourcePoint" />
            <mxPoint x="240" y="250" as="targetPoint" />
          </mxGeometry>
        </mxCell>
        <mxCell id="v6Ifo-EGwxRaasYGGxyW-66" value="EN" style="text;html=1;align=center;verticalAlign=middle;whiteSpace=wrap;rounded=0;" vertex="1" parent="1">
          <mxGeometry x="520" y="410" width="20" height="20" as="geometry" />
        </mxCell>
        <mxCell id="oB0e9h7nOE4ZnNeMf3d7-2" value="S_Bat" style="text;html=1;strokeColor=none;fillColor=none;align=center;verticalAlign=middle;whiteSpace=wrap;rounded=0;" vertex="1" parent="1">
          <mxGeometry x="450" y="310" width="40" height="13.75" as="geometry" />
        </mxCell>
        <mxCell id="oB0e9h7nOE4ZnNeMf3d7-4" value="" style="endArrow=classic;html=1;rounded=0;entryX=1;entryY=0.75;entryDx=0;entryDy=0;" edge="1" parent="1" target="v6Ifo-EGwxRaasYGGxyW-32">
          <mxGeometry width="50" height="50" relative="1" as="geometry">
            <mxPoint x="480" y="350" as="sourcePoint" />
            <mxPoint x="520" y="350" as="targetPoint" />
          </mxGeometry>
        </mxCell>
        <mxCell id="oB0e9h7nOE4ZnNeMf3d7-5" value="" style="endArrow=none;html=1;rounded=0;" edge="1" parent="1">
          <mxGeometry width="50" height="50" relative="1" as="geometry">
            <mxPoint x="480" y="520" as="sourcePoint" />
            <mxPoint x="480" y="350" as="targetPoint" />
          </mxGeometry>
        </mxCell>
        <mxCell id="oB0e9h7nOE4ZnNeMf3d7-6" value="" style="endArrow=none;html=1;rounded=0;entryX=1;entryY=0.25;entryDx=0;entryDy=0;" edge="1" parent="1" target="v6Ifo-EGwxRaasYGGxyW-32">
          <mxGeometry width="50" height="50" relative="1" as="geometry">
            <mxPoint x="480" y="302" as="sourcePoint" />
            <mxPoint x="560" y="290" as="targetPoint" />
          </mxGeometry>
        </mxCell>
        <mxCell id="oB0e9h7nOE4ZnNeMf3d7-8" value="GND" style="text;html=1;strokeColor=none;fillColor=none;align=center;verticalAlign=middle;whiteSpace=wrap;rounded=0;" vertex="1" parent="1">
          <mxGeometry x="450" y="283.13" width="40" height="23.75" as="geometry" />
        </mxCell>
        <mxCell id="oB0e9h7nOE4ZnNeMf3d7-13" value="" style="endArrow=classic;html=1;rounded=0;entryX=0;entryY=0.75;entryDx=0;entryDy=0;" edge="1" parent="1" target="v6Ifo-EGwxRaasYGGxyW-32">
          <mxGeometry width="50" height="50" relative="1" as="geometry">
            <mxPoint x="350" y="350" as="sourcePoint" />
            <mxPoint x="370" y="390" as="targetPoint" />
          </mxGeometry>
        </mxCell>
        <mxCell id="oB0e9h7nOE4ZnNeMf3d7-14" value="GND" style="text;html=1;strokeColor=none;fillColor=none;align=center;verticalAlign=middle;whiteSpace=wrap;rounded=0;" vertex="1" parent="1">
          <mxGeometry x="355" y="278.13" width="40" height="23.75" as="geometry" />
        </mxCell>
        <mxCell id="oB0e9h7nOE4ZnNeMf3d7-15" value="" style="endArrow=none;html=1;rounded=0;entryX=0;entryY=0.25;entryDx=0;entryDy=0;" edge="1" parent="1" target="v6Ifo-EGwxRaasYGGxyW-32">
          <mxGeometry width="50" height="50" relative="1" as="geometry">
            <mxPoint x="350" y="302" as="sourcePoint" />
            <mxPoint x="380" y="270" as="targetPoint" />
          </mxGeometry>
        </mxCell>
        <mxCell id="oB0e9h7nOE4ZnNeMf3d7-16" value="" style="endArrow=none;html=1;rounded=0;" edge="1" parent="1">
          <mxGeometry width="50" height="50" relative="1" as="geometry">
            <mxPoint x="350" y="520" as="sourcePoint" />
            <mxPoint x="350" y="350" as="targetPoint" />
          </mxGeometry>
        </mxCell>
        <mxCell id="wfgpPIwBagWl9R3Hsq4y-1" value="" style="endArrow=classic;html=1;rounded=0;entryX=0.5;entryY=1;entryDx=0;entryDy=0;" edge="1" parent="1" target="v6Ifo-EGwxRaasYGGxyW-12">
          <mxGeometry width="50" height="50" relative="1" as="geometry">
            <mxPoint x="740" y="200" as="sourcePoint" />
            <mxPoint x="690" y="260" as="targetPoint" />
          </mxGeometry>
        </mxCell>
        <mxCell id="wfgpPIwBagWl9R3Hsq4y-2" value="" style="endArrow=none;html=1;rounded=0;" edge="1" parent="1">
          <mxGeometry width="50" height="50" relative="1" as="geometry">
            <mxPoint x="580" y="200" as="sourcePoint" />
            <mxPoint x="740" y="200" as="targetPoint" />
          </mxGeometry>
        </mxCell>
      </root>
    </mxGraphModel>
  </diagram>
</mxfile>
